<svg xmlns="http://www.w3.org/2000/svg" xmlns:xlink="http://www.w3.org/1999/xlink" width="500" zoomAndPan="magnify" viewBox="0 0 375 374.999991" height="500" preserveAspectRatio="xMidYMid meet" version="1.0"><defs><g/></defs><g fill="#8c52ff" fill-opacity="1"><g transform="translate(178.127674, 300.652572)"><g><path d="M 6.625 0 L 6.625 -1.75 L 8.890625 -1.75 C 18.421875 -1.75 23.1875 -5.929688 23.1875 -14.296875 L 23.1875 -110.859375 C 23.1875 -118.765625 18.421875 -122.71875 8.890625 -122.71875 L 6.625 -122.71875 L 6.625 -124.453125 L 53.34375 -124.453125 C 83.207031 -124.453125 98.140625 -114.578125 98.140625 -94.828125 C 98.140625 -77.273438 86.984375 -67.628906 64.671875 -65.890625 L 64.671875 -65.546875 C 78.492188 -64.960938 88.398438 -61.789062 94.390625 -56.03125 C 100.378906 -50.28125 103.375 -42.757812 103.375 -33.46875 C 103.375 -11.15625 88.4375 0 58.5625 0 Z M 40.796875 -66.0625 L 52.8125 -66.0625 C 62.457031 -66.0625 69.3125 -68.148438 73.375 -72.328125 C 77.445312 -76.515625 79.484375 -83.488281 79.484375 -93.25 C 79.484375 -103.832031 77.421875 -111.390625 73.296875 -115.921875 C 69.171875 -120.453125 62.226562 -122.71875 52.46875 -122.71875 L 40.796875 -122.71875 Z M 40.796875 -1.75 L 57.703125 -1.75 C 67.460938 -1.75 74.40625 -4.1875 78.53125 -9.0625 C 82.65625 -13.945312 84.71875 -22.082031 84.71875 -33.46875 C 84.71875 -44.507812 82.679688 -52.410156 78.609375 -57.171875 C 74.546875 -61.941406 67.691406 -64.328125 58.046875 -64.328125 L 40.796875 -64.328125 Z M 40.796875 -1.75 "/></g></g></g><g fill="#8c52ff" fill-opacity="1"><g transform="translate(91.492217, 209.543497)"><g><path d="M 6.28125 0 L 6.28125 -1.75 L 73.390625 -122.71875 L 37.484375 -122.71875 C 31.085938 -122.71875 26.03125 -121.960938 22.3125 -120.453125 C 18.59375 -118.941406 15.890625 -116.410156 14.203125 -112.859375 C 12.515625 -109.316406 11.554688 -104.46875 11.328125 -98.3125 L 11.15625 -93.953125 L 9.40625 -93.953125 L 10.453125 -124.453125 L 93.078125 -124.453125 L 93.078125 -122.71875 L 25.96875 -1.75 L 67.8125 -1.75 C 73.96875 -1.75 78.847656 -2.503906 82.453125 -4.015625 C 86.054688 -5.523438 88.726562 -8.050781 90.46875 -11.59375 C 92.207031 -15.132812 93.367188 -19.984375 93.953125 -26.140625 L 94.296875 -30.5 L 96.046875 -30.5 L 95 0 Z M 6.28125 0 "/></g></g></g></svg>