<svg xmlns="http://www.w3.org/2000/svg" xmlns:xlink="http://www.w3.org/1999/xlink" width="500" zoomAndPan="magnify" viewBox="0 0 375 374.999991" height="500" preserveAspectRatio="xMidYMid meet" version="1.0"><defs><g/><clipPath id="f0ef5faba8"><path d="M 28.726562 140.457031 L 346.273438 140.457031 L 346.273438 176.003906 L 28.726562 176.003906 Z M 28.726562 140.457031 " clip-rule="nonzero"/></clipPath></defs><rect x="-37.5" width="450" fill="#ffffff" y="-37.499999" height="449.999989" fill-opacity="1"/><rect x="-37.5" width="450" fill="#f4f4f4" y="-37.499999" height="449.999989" fill-opacity="1"/><g fill="#3b3937" fill-opacity="1"><g transform="translate(178.127674, 300.652572)"><g><path d="M 6.625 0 L 6.625 -1.75 L 8.890625 -1.75 C 18.421875 -1.75 23.1875 -5.929688 23.1875 -14.296875 L 23.1875 -110.859375 C 23.1875 -118.765625 18.421875 -122.71875 8.890625 -122.71875 L 6.625 -122.71875 L 6.625 -124.453125 L 53.34375 -124.453125 C 83.207031 -124.453125 98.140625 -114.578125 98.140625 -94.828125 C 98.140625 -77.273438 86.984375 -67.628906 64.671875 -65.890625 L 64.671875 -65.546875 C 78.492188 -64.960938 88.398438 -61.789062 94.390625 -56.03125 C 100.378906 -50.28125 103.375 -42.757812 103.375 -33.46875 C 103.375 -11.15625 88.4375 0 58.5625 0 Z M 40.796875 -66.0625 L 52.8125 -66.0625 C 62.457031 -66.0625 69.3125 -68.148438 73.375 -72.328125 C 77.445312 -76.515625 79.484375 -83.488281 79.484375 -93.25 C 79.484375 -103.832031 77.421875 -111.390625 73.296875 -115.921875 C 69.171875 -120.453125 62.226562 -122.71875 52.46875 -122.71875 L 40.796875 -122.71875 Z M 40.796875 -1.75 L 57.703125 -1.75 C 67.460938 -1.75 74.40625 -4.1875 78.53125 -9.0625 C 82.65625 -13.945312 84.71875 -22.082031 84.71875 -33.46875 C 84.71875 -44.507812 82.679688 -52.410156 78.609375 -57.171875 C 74.546875 -61.941406 67.691406 -64.328125 58.046875 -64.328125 L 40.796875 -64.328125 Z M 40.796875 -1.75 "/></g></g></g><g fill="#3b3937" fill-opacity="1"><g transform="translate(93.672449, 196.207118)"><g><path d="M 6.28125 0 L 6.28125 -1.75 L 73.390625 -122.71875 L 37.484375 -122.71875 C 31.085938 -122.71875 26.03125 -121.960938 22.3125 -120.453125 C 18.59375 -118.941406 15.890625 -116.410156 14.203125 -112.859375 C 12.515625 -109.316406 11.554688 -104.46875 11.328125 -98.3125 L 11.15625 -93.953125 L 9.40625 -93.953125 L 10.453125 -124.453125 L 93.078125 -124.453125 L 93.078125 -122.71875 L 25.96875 -1.75 L 67.8125 -1.75 C 73.96875 -1.75 78.847656 -2.503906 82.453125 -4.015625 C 86.054688 -5.523438 88.726562 -8.050781 90.46875 -11.59375 C 92.207031 -15.132812 93.367188 -19.984375 93.953125 -26.140625 L 94.296875 -30.5 L 96.046875 -30.5 L 95 0 Z M 6.28125 0 "/></g></g></g><g clip-path="url(#f0ef5faba8)"><path fill="#f4f4f4" d="M 28.726562 140.457031 L 346.289062 140.457031 L 346.289062 176.003906 L 28.726562 176.003906 Z M 28.726562 140.457031 " fill-opacity="1" fill-rule="nonzero"/></g><g fill="#3b3937" fill-opacity="1"><g transform="translate(59.862189, 165.15722)"><g><path d="M 1.046875 -10.0625 L 4.359375 -10.0625 C 5.597656 -10.0625 6.503906 -9.765625 7.078125 -9.171875 C 7.660156 -8.578125 7.953125 -7.628906 7.953125 -6.328125 L 7.953125 -3.734375 C 7.953125 -2.429688 7.660156 -1.484375 7.078125 -0.890625 C 6.503906 -0.296875 5.597656 0 4.359375 0 L 1.046875 0 L 1.046875 -1.140625 L 1.90625 -1.140625 L 1.90625 -8.9375 L 1.046875 -8.9375 Z M 4.1875 -1.125 C 4.625 -1.125 5.003906 -1.164062 5.328125 -1.25 C 5.648438 -1.332031 5.914062 -1.476562 6.125 -1.6875 C 6.332031 -1.894531 6.484375 -2.171875 6.578125 -2.515625 C 6.679688 -2.859375 6.734375 -3.296875 6.734375 -3.828125 L 6.734375 -6.234375 C 6.734375 -6.765625 6.679688 -7.203125 6.578125 -7.546875 C 6.484375 -7.890625 6.332031 -8.164062 6.125 -8.375 C 5.914062 -8.582031 5.648438 -8.726562 5.328125 -8.8125 C 5.003906 -8.894531 4.625 -8.9375 4.1875 -8.9375 L 3.125 -8.9375 L 3.125 -1.125 Z M 4.1875 -1.125 "/></g></g></g><g fill="#3b3937" fill-opacity="1"><g transform="translate(68.664311, 165.15722)"><g><path d="M 2.0625 -3.21875 C 2.09375 -2.507812 2.3125 -1.9375 2.71875 -1.5 C 3.132812 -1.070312 3.710938 -0.859375 4.453125 -0.859375 C 4.785156 -0.859375 5.078125 -0.894531 5.328125 -0.96875 C 5.578125 -1.050781 5.789062 -1.160156 5.96875 -1.296875 C 6.144531 -1.429688 6.285156 -1.585938 6.390625 -1.765625 C 6.503906 -1.941406 6.597656 -2.128906 6.671875 -2.328125 L 7.734375 -2.046875 C 7.535156 -1.378906 7.164062 -0.835938 6.625 -0.421875 C 6.082031 -0.00390625 5.347656 0.203125 4.421875 0.203125 C 3.921875 0.203125 3.457031 0.113281 3.03125 -0.0625 C 2.601562 -0.238281 2.234375 -0.488281 1.921875 -0.8125 C 1.617188 -1.144531 1.378906 -1.535156 1.203125 -1.984375 C 1.035156 -2.429688 0.953125 -2.929688 0.953125 -3.484375 L 0.953125 -3.828125 C 0.953125 -4.328125 1.039062 -4.789062 1.21875 -5.21875 C 1.394531 -5.644531 1.640625 -6.015625 1.953125 -6.328125 C 2.265625 -6.640625 2.632812 -6.882812 3.0625 -7.0625 C 3.488281 -7.238281 3.953125 -7.328125 4.453125 -7.328125 C 5.035156 -7.328125 5.539062 -7.21875 5.96875 -7 C 6.394531 -6.789062 6.742188 -6.523438 7.015625 -6.203125 C 7.296875 -5.890625 7.5 -5.546875 7.625 -5.171875 C 7.75 -4.796875 7.8125 -4.453125 7.8125 -4.140625 L 7.8125 -3.21875 Z M 4.453125 -6.265625 C 4.140625 -6.265625 3.84375 -6.210938 3.5625 -6.109375 C 3.289062 -6.015625 3.050781 -5.875 2.84375 -5.6875 C 2.644531 -5.507812 2.476562 -5.296875 2.34375 -5.046875 C 2.21875 -4.804688 2.132812 -4.539062 2.09375 -4.25 L 6.703125 -4.25 C 6.679688 -4.5625 6.601562 -4.84375 6.46875 -5.09375 C 6.34375 -5.34375 6.175781 -5.550781 5.96875 -5.71875 C 5.757812 -5.894531 5.523438 -6.03125 5.265625 -6.125 C 5.003906 -6.21875 4.734375 -6.265625 4.453125 -6.265625 Z M 4.453125 -6.265625 "/></g></g></g><g fill="#3b3937" fill-opacity="1"><g transform="translate(77.466432, 165.15722)"><g><path d="M 5.484375 0 L 3.28125 0 L 0.796875 -7.125 L 2.109375 -7.125 L 4.296875 -0.515625 L 4.46875 -0.515625 L 6.65625 -7.125 L 7.984375 -7.125 Z M 5.484375 0 "/></g></g></g><g fill="#3b3937" fill-opacity="1"><g transform="translate(86.268554, 165.15722)"><g><path d="M 2.0625 -3.21875 C 2.09375 -2.507812 2.3125 -1.9375 2.71875 -1.5 C 3.132812 -1.070312 3.710938 -0.859375 4.453125 -0.859375 C 4.785156 -0.859375 5.078125 -0.894531 5.328125 -0.96875 C 5.578125 -1.050781 5.789062 -1.160156 5.96875 -1.296875 C 6.144531 -1.429688 6.285156 -1.585938 6.390625 -1.765625 C 6.503906 -1.941406 6.597656 -2.128906 6.671875 -2.328125 L 7.734375 -2.046875 C 7.535156 -1.378906 7.164062 -0.835938 6.625 -0.421875 C 6.082031 -0.00390625 5.347656 0.203125 4.421875 0.203125 C 3.921875 0.203125 3.457031 0.113281 3.03125 -0.0625 C 2.601562 -0.238281 2.234375 -0.488281 1.921875 -0.8125 C 1.617188 -1.144531 1.378906 -1.535156 1.203125 -1.984375 C 1.035156 -2.429688 0.953125 -2.929688 0.953125 -3.484375 L 0.953125 -3.828125 C 0.953125 -4.328125 1.039062 -4.789062 1.21875 -5.21875 C 1.394531 -5.644531 1.640625 -6.015625 1.953125 -6.328125 C 2.265625 -6.640625 2.632812 -6.882812 3.0625 -7.0625 C 3.488281 -7.238281 3.953125 -7.328125 4.453125 -7.328125 C 5.035156 -7.328125 5.539062 -7.21875 5.96875 -7 C 6.394531 -6.789062 6.742188 -6.523438 7.015625 -6.203125 C 7.296875 -5.890625 7.5 -5.546875 7.625 -5.171875 C 7.75 -4.796875 7.8125 -4.453125 7.8125 -4.140625 L 7.8125 -3.21875 Z M 4.453125 -6.265625 C 4.140625 -6.265625 3.84375 -6.210938 3.5625 -6.109375 C 3.289062 -6.015625 3.050781 -5.875 2.84375 -5.6875 C 2.644531 -5.507812 2.476562 -5.296875 2.34375 -5.046875 C 2.21875 -4.804688 2.132812 -4.539062 2.09375 -4.25 L 6.703125 -4.25 C 6.679688 -4.5625 6.601562 -4.84375 6.46875 -5.09375 C 6.34375 -5.34375 6.175781 -5.550781 5.96875 -5.71875 C 5.757812 -5.894531 5.523438 -6.03125 5.265625 -6.125 C 5.003906 -6.21875 4.734375 -6.265625 4.453125 -6.265625 Z M 4.453125 -6.265625 "/></g></g></g><g fill="#3b3937" fill-opacity="1"><g transform="translate(95.070675, 165.15722)"><g><path d="M 1.25 -1.03125 L 3.84375 -1.03125 L 3.84375 -9.03125 L 1.34375 -9.03125 L 1.34375 -10.0625 L 4.953125 -10.0625 L 4.953125 -1.03125 L 7.546875 -1.03125 L 7.546875 0 L 1.25 0 Z M 1.25 -1.03125 "/></g></g></g><g fill="#3b3937" fill-opacity="1"><g transform="translate(103.872797, 165.15722)"><g><path d="M 7.984375 -3.484375 C 7.984375 -2.890625 7.882812 -2.363281 7.6875 -1.90625 C 7.488281 -1.445312 7.222656 -1.0625 6.890625 -0.75 C 6.566406 -0.4375 6.1875 -0.195312 5.75 -0.03125 C 5.320312 0.125 4.875 0.203125 4.40625 0.203125 C 3.925781 0.203125 3.46875 0.125 3.03125 -0.03125 C 2.601562 -0.195312 2.222656 -0.4375 1.890625 -0.75 C 1.566406 -1.0625 1.304688 -1.445312 1.109375 -1.90625 C 0.910156 -2.363281 0.8125 -2.890625 0.8125 -3.484375 L 0.8125 -3.65625 C 0.8125 -4.238281 0.910156 -4.753906 1.109375 -5.203125 C 1.304688 -5.660156 1.570312 -6.046875 1.90625 -6.359375 C 2.238281 -6.679688 2.617188 -6.921875 3.046875 -7.078125 C 3.472656 -7.242188 3.925781 -7.328125 4.40625 -7.328125 C 4.875 -7.328125 5.320312 -7.242188 5.75 -7.078125 C 6.175781 -6.921875 6.554688 -6.679688 6.890625 -6.359375 C 7.222656 -6.046875 7.488281 -5.660156 7.6875 -5.203125 C 7.882812 -4.753906 7.984375 -4.238281 7.984375 -3.65625 Z M 4.40625 -0.859375 C 4.75 -0.859375 5.066406 -0.914062 5.359375 -1.03125 C 5.648438 -1.15625 5.90625 -1.332031 6.125 -1.5625 C 6.34375 -1.789062 6.515625 -2.066406 6.640625 -2.390625 C 6.765625 -2.710938 6.828125 -3.078125 6.828125 -3.484375 L 6.828125 -3.65625 C 6.828125 -4.03125 6.765625 -4.378906 6.640625 -4.703125 C 6.515625 -5.023438 6.34375 -5.300781 6.125 -5.53125 C 5.90625 -5.757812 5.644531 -5.9375 5.34375 -6.0625 C 5.050781 -6.195312 4.738281 -6.265625 4.40625 -6.265625 C 4.0625 -6.265625 3.738281 -6.195312 3.4375 -6.0625 C 3.144531 -5.9375 2.890625 -5.757812 2.671875 -5.53125 C 2.453125 -5.300781 2.28125 -5.023438 2.15625 -4.703125 C 2.03125 -4.378906 1.96875 -4.03125 1.96875 -3.65625 L 1.96875 -3.484375 C 1.96875 -3.078125 2.03125 -2.710938 2.15625 -2.390625 C 2.28125 -2.066406 2.453125 -1.789062 2.671875 -1.5625 C 2.890625 -1.332031 3.144531 -1.15625 3.4375 -1.03125 C 3.726562 -0.914062 4.050781 -0.859375 4.40625 -0.859375 Z M 4.40625 -0.859375 "/></g></g></g><g fill="#3b3937" fill-opacity="1"><g transform="translate(112.674918, 165.15722)"><g><path d="M 2.109375 2.875 L 0.984375 2.875 L 0.984375 -7.125 L 2.109375 -7.125 L 2.109375 -6.015625 L 2.28125 -6.015625 C 2.53125 -6.441406 2.875 -6.765625 3.3125 -6.984375 C 3.757812 -7.210938 4.242188 -7.328125 4.765625 -7.328125 C 5.203125 -7.328125 5.613281 -7.242188 6 -7.078125 C 6.394531 -6.921875 6.742188 -6.6875 7.046875 -6.375 C 7.347656 -6.070312 7.585938 -5.695312 7.765625 -5.25 C 7.941406 -4.800781 8.03125 -4.285156 8.03125 -3.703125 L 8.03125 -3.421875 C 8.03125 -2.835938 7.941406 -2.316406 7.765625 -1.859375 C 7.597656 -1.410156 7.363281 -1.03125 7.0625 -0.71875 C 6.757812 -0.414062 6.40625 -0.1875 6 -0.03125 C 5.601562 0.125 5.179688 0.203125 4.734375 0.203125 C 4.503906 0.203125 4.269531 0.175781 4.03125 0.125 C 3.789062 0.0703125 3.5625 -0.00390625 3.34375 -0.109375 C 3.125 -0.222656 2.921875 -0.359375 2.734375 -0.515625 C 2.554688 -0.679688 2.40625 -0.875 2.28125 -1.09375 L 2.109375 -1.09375 Z M 4.5 -0.859375 C 4.84375 -0.859375 5.15625 -0.914062 5.4375 -1.03125 C 5.726562 -1.15625 5.984375 -1.328125 6.203125 -1.546875 C 6.421875 -1.773438 6.585938 -2.046875 6.703125 -2.359375 C 6.828125 -2.671875 6.890625 -3.023438 6.890625 -3.421875 L 6.890625 -3.703125 C 6.890625 -4.085938 6.828125 -4.4375 6.703125 -4.75 C 6.585938 -5.0625 6.421875 -5.328125 6.203125 -5.546875 C 5.984375 -5.773438 5.726562 -5.953125 5.4375 -6.078125 C 5.144531 -6.203125 4.832031 -6.265625 4.5 -6.265625 C 4.164062 -6.265625 3.851562 -6.195312 3.5625 -6.0625 C 3.28125 -5.9375 3.03125 -5.757812 2.8125 -5.53125 C 2.59375 -5.300781 2.421875 -5.023438 2.296875 -4.703125 C 2.171875 -4.378906 2.109375 -4.03125 2.109375 -3.65625 L 2.109375 -3.484375 C 2.109375 -3.085938 2.171875 -2.726562 2.296875 -2.40625 C 2.421875 -2.082031 2.59375 -1.804688 2.8125 -1.578125 C 3.03125 -1.347656 3.28125 -1.171875 3.5625 -1.046875 C 3.851562 -0.921875 4.164062 -0.859375 4.5 -0.859375 Z M 4.5 -0.859375 "/></g></g></g><g fill="#3b3937" fill-opacity="1"><g transform="translate(121.47704, 165.15722)"><g><path d="M 2.0625 -3.21875 C 2.09375 -2.507812 2.3125 -1.9375 2.71875 -1.5 C 3.132812 -1.070312 3.710938 -0.859375 4.453125 -0.859375 C 4.785156 -0.859375 5.078125 -0.894531 5.328125 -0.96875 C 5.578125 -1.050781 5.789062 -1.160156 5.96875 -1.296875 C 6.144531 -1.429688 6.285156 -1.585938 6.390625 -1.765625 C 6.503906 -1.941406 6.597656 -2.128906 6.671875 -2.328125 L 7.734375 -2.046875 C 7.535156 -1.378906 7.164062 -0.835938 6.625 -0.421875 C 6.082031 -0.00390625 5.347656 0.203125 4.421875 0.203125 C 3.921875 0.203125 3.457031 0.113281 3.03125 -0.0625 C 2.601562 -0.238281 2.234375 -0.488281 1.921875 -0.8125 C 1.617188 -1.144531 1.378906 -1.535156 1.203125 -1.984375 C 1.035156 -2.429688 0.953125 -2.929688 0.953125 -3.484375 L 0.953125 -3.828125 C 0.953125 -4.328125 1.039062 -4.789062 1.21875 -5.21875 C 1.394531 -5.644531 1.640625 -6.015625 1.953125 -6.328125 C 2.265625 -6.640625 2.632812 -6.882812 3.0625 -7.0625 C 3.488281 -7.238281 3.953125 -7.328125 4.453125 -7.328125 C 5.035156 -7.328125 5.539062 -7.21875 5.96875 -7 C 6.394531 -6.789062 6.742188 -6.523438 7.015625 -6.203125 C 7.296875 -5.890625 7.5 -5.546875 7.625 -5.171875 C 7.75 -4.796875 7.8125 -4.453125 7.8125 -4.140625 L 7.8125 -3.21875 Z M 4.453125 -6.265625 C 4.140625 -6.265625 3.84375 -6.210938 3.5625 -6.109375 C 3.289062 -6.015625 3.050781 -5.875 2.84375 -5.6875 C 2.644531 -5.507812 2.476562 -5.296875 2.34375 -5.046875 C 2.21875 -4.804688 2.132812 -4.539062 2.09375 -4.25 L 6.703125 -4.25 C 6.679688 -4.5625 6.601562 -4.84375 6.46875 -5.09375 C 6.34375 -5.34375 6.175781 -5.550781 5.96875 -5.71875 C 5.757812 -5.894531 5.523438 -6.03125 5.265625 -6.125 C 5.003906 -6.21875 4.734375 -6.265625 4.453125 -6.265625 Z M 4.453125 -6.265625 "/></g></g></g><g fill="#3b3937" fill-opacity="1"><g transform="translate(130.279161, 165.15722)"><g><path d="M 0.84375 -7.125 L 3.4375 -7.125 L 3.4375 -6.1875 L 3.609375 -6.1875 C 3.785156 -6.570312 4.039062 -6.859375 4.375 -7.046875 C 4.71875 -7.234375 5.101562 -7.328125 5.53125 -7.328125 C 6.25 -7.328125 6.828125 -7.09375 7.265625 -6.625 C 7.710938 -6.15625 7.953125 -5.472656 7.984375 -4.578125 L 6.796875 -4.40625 C 6.796875 -5.0625 6.632812 -5.535156 6.3125 -5.828125 C 6 -6.117188 5.613281 -6.265625 5.15625 -6.265625 C 4.863281 -6.265625 4.609375 -6.207031 4.390625 -6.09375 C 4.171875 -5.976562 3.988281 -5.816406 3.84375 -5.609375 C 3.707031 -5.410156 3.601562 -5.175781 3.53125 -4.90625 C 3.46875 -4.644531 3.4375 -4.359375 3.4375 -4.046875 L 3.4375 -1.03125 L 5.25 -1.03125 L 5.25 0 L 0.671875 0 L 0.671875 -1.03125 L 2.3125 -1.03125 L 2.3125 -6.09375 L 0.84375 -6.09375 Z M 0.84375 -7.125 "/></g></g></g><g fill="#3b3937" fill-opacity="1"><g transform="translate(139.081283, 165.15722)"><g><path d="M 3.390625 -0.8125 C 3.390625 -1.082031 3.488281 -1.316406 3.6875 -1.515625 C 3.882812 -1.710938 4.125 -1.8125 4.40625 -1.8125 C 4.675781 -1.8125 4.910156 -1.710938 5.109375 -1.515625 C 5.304688 -1.316406 5.40625 -1.082031 5.40625 -0.8125 C 5.40625 -0.53125 5.304688 -0.289062 5.109375 -0.09375 C 4.910156 0.101562 4.675781 0.203125 4.40625 0.203125 C 4.125 0.203125 3.882812 0.101562 3.6875 -0.09375 C 3.488281 -0.289062 3.390625 -0.53125 3.390625 -0.8125 Z M 3.390625 -0.8125 "/></g></g></g><g fill="#3b3937" fill-opacity="1"><g transform="translate(147.883404, 165.15722)"><g/></g></g><g fill="#3b3937" fill-opacity="1"><g transform="translate(156.685526, 165.15722)"><g><path d="M 1.046875 -10.0625 L 4.359375 -10.0625 C 5.597656 -10.0625 6.503906 -9.765625 7.078125 -9.171875 C 7.660156 -8.578125 7.953125 -7.628906 7.953125 -6.328125 L 7.953125 -3.734375 C 7.953125 -2.429688 7.660156 -1.484375 7.078125 -0.890625 C 6.503906 -0.296875 5.597656 0 4.359375 0 L 1.046875 0 L 1.046875 -1.140625 L 1.90625 -1.140625 L 1.90625 -8.9375 L 1.046875 -8.9375 Z M 4.1875 -1.125 C 4.625 -1.125 5.003906 -1.164062 5.328125 -1.25 C 5.648438 -1.332031 5.914062 -1.476562 6.125 -1.6875 C 6.332031 -1.894531 6.484375 -2.171875 6.578125 -2.515625 C 6.679688 -2.859375 6.734375 -3.296875 6.734375 -3.828125 L 6.734375 -6.234375 C 6.734375 -6.765625 6.679688 -7.203125 6.578125 -7.546875 C 6.484375 -7.890625 6.332031 -8.164062 6.125 -8.375 C 5.914062 -8.582031 5.648438 -8.726562 5.328125 -8.8125 C 5.003906 -8.894531 4.625 -8.9375 4.1875 -8.9375 L 3.125 -8.9375 L 3.125 -1.125 Z M 4.1875 -1.125 "/></g></g></g><g fill="#3b3937" fill-opacity="1"><g transform="translate(165.487648, 165.15722)"><g><path d="M 2.0625 -3.21875 C 2.09375 -2.507812 2.3125 -1.9375 2.71875 -1.5 C 3.132812 -1.070312 3.710938 -0.859375 4.453125 -0.859375 C 4.785156 -0.859375 5.078125 -0.894531 5.328125 -0.96875 C 5.578125 -1.050781 5.789062 -1.160156 5.96875 -1.296875 C 6.144531 -1.429688 6.285156 -1.585938 6.390625 -1.765625 C 6.503906 -1.941406 6.597656 -2.128906 6.671875 -2.328125 L 7.734375 -2.046875 C 7.535156 -1.378906 7.164062 -0.835938 6.625 -0.421875 C 6.082031 -0.00390625 5.347656 0.203125 4.421875 0.203125 C 3.921875 0.203125 3.457031 0.113281 3.03125 -0.0625 C 2.601562 -0.238281 2.234375 -0.488281 1.921875 -0.8125 C 1.617188 -1.144531 1.378906 -1.535156 1.203125 -1.984375 C 1.035156 -2.429688 0.953125 -2.929688 0.953125 -3.484375 L 0.953125 -3.828125 C 0.953125 -4.328125 1.039062 -4.789062 1.21875 -5.21875 C 1.394531 -5.644531 1.640625 -6.015625 1.953125 -6.328125 C 2.265625 -6.640625 2.632812 -6.882812 3.0625 -7.0625 C 3.488281 -7.238281 3.953125 -7.328125 4.453125 -7.328125 C 5.035156 -7.328125 5.539062 -7.21875 5.96875 -7 C 6.394531 -6.789062 6.742188 -6.523438 7.015625 -6.203125 C 7.296875 -5.890625 7.5 -5.546875 7.625 -5.171875 C 7.75 -4.796875 7.8125 -4.453125 7.8125 -4.140625 L 7.8125 -3.21875 Z M 4.453125 -6.265625 C 4.140625 -6.265625 3.84375 -6.210938 3.5625 -6.109375 C 3.289062 -6.015625 3.050781 -5.875 2.84375 -5.6875 C 2.644531 -5.507812 2.476562 -5.296875 2.34375 -5.046875 C 2.21875 -4.804688 2.132812 -4.539062 2.09375 -4.25 L 6.703125 -4.25 C 6.679688 -4.5625 6.601562 -4.84375 6.46875 -5.09375 C 6.34375 -5.34375 6.175781 -5.550781 5.96875 -5.71875 C 5.757812 -5.894531 5.523438 -6.03125 5.265625 -6.125 C 5.003906 -6.21875 4.734375 -6.265625 4.453125 -6.265625 Z M 4.453125 -6.265625 "/></g></g></g><g fill="#3b3937" fill-opacity="1"><g transform="translate(174.289769, 165.15722)"><g><path d="M 2.734375 -5.296875 C 2.734375 -4.941406 2.878906 -4.671875 3.171875 -4.484375 C 3.460938 -4.304688 3.992188 -4.191406 4.765625 -4.140625 C 5.597656 -4.078125 6.234375 -3.878906 6.671875 -3.546875 C 7.109375 -3.210938 7.328125 -2.726562 7.328125 -2.09375 L 7.328125 -2.015625 C 7.328125 -1.671875 7.257812 -1.359375 7.125 -1.078125 C 6.988281 -0.804688 6.796875 -0.570312 6.546875 -0.375 C 6.304688 -0.1875 6.007812 -0.046875 5.65625 0.046875 C 5.300781 0.148438 4.921875 0.203125 4.515625 0.203125 C 3.960938 0.203125 3.484375 0.128906 3.078125 -0.015625 C 2.679688 -0.171875 2.351562 -0.367188 2.09375 -0.609375 C 1.832031 -0.859375 1.632812 -1.132812 1.5 -1.4375 C 1.363281 -1.75 1.285156 -2.066406 1.265625 -2.390625 L 2.328125 -2.640625 C 2.378906 -2.097656 2.585938 -1.660156 2.953125 -1.328125 C 3.328125 -0.992188 3.828125 -0.828125 4.453125 -0.828125 C 4.984375 -0.828125 5.40625 -0.929688 5.71875 -1.140625 C 6.039062 -1.347656 6.203125 -1.640625 6.203125 -2.015625 C 6.203125 -2.410156 6.046875 -2.695312 5.734375 -2.875 C 5.421875 -3.050781 4.910156 -3.160156 4.203125 -3.203125 C 3.378906 -3.265625 2.742188 -3.457031 2.296875 -3.78125 C 1.859375 -4.101562 1.640625 -4.578125 1.640625 -5.203125 L 1.640625 -5.296875 C 1.640625 -5.628906 1.707031 -5.921875 1.84375 -6.171875 C 1.988281 -6.429688 2.179688 -6.644531 2.421875 -6.8125 C 2.671875 -6.988281 2.945312 -7.117188 3.25 -7.203125 C 3.5625 -7.285156 3.882812 -7.328125 4.21875 -7.328125 C 4.695312 -7.328125 5.113281 -7.257812 5.46875 -7.125 C 5.820312 -7 6.117188 -6.832031 6.359375 -6.625 C 6.597656 -6.425781 6.78125 -6.191406 6.90625 -5.921875 C 7.03125 -5.648438 7.113281 -5.382812 7.15625 -5.125 L 6.09375 -4.859375 C 6.039062 -5.316406 5.851562 -5.675781 5.53125 -5.9375 C 5.21875 -6.195312 4.800781 -6.328125 4.28125 -6.328125 C 4.082031 -6.328125 3.890625 -6.304688 3.703125 -6.265625 C 3.515625 -6.222656 3.347656 -6.15625 3.203125 -6.0625 C 3.054688 -5.976562 2.941406 -5.867188 2.859375 -5.734375 C 2.773438 -5.609375 2.734375 -5.460938 2.734375 -5.296875 Z M 2.734375 -5.296875 "/></g></g></g><g fill="#3b3937" fill-opacity="1"><g transform="translate(183.091891, 165.15722)"><g><path d="M 3.46875 -9.25 C 3.46875 -9.53125 3.5625 -9.769531 3.75 -9.96875 C 3.945312 -10.164062 4.1875 -10.265625 4.46875 -10.265625 C 4.75 -10.265625 4.988281 -10.164062 5.1875 -9.96875 C 5.382812 -9.769531 5.484375 -9.53125 5.484375 -9.25 C 5.484375 -8.976562 5.382812 -8.742188 5.1875 -8.546875 C 4.988281 -8.347656 4.75 -8.25 4.46875 -8.25 C 4.1875 -8.25 3.945312 -8.347656 3.75 -8.546875 C 3.5625 -8.742188 3.46875 -8.976562 3.46875 -9.25 Z M 1.421875 -1.03125 L 3.921875 -1.03125 L 3.921875 -6.09375 L 1.6875 -6.09375 L 1.6875 -7.125 L 5.046875 -7.125 L 5.046875 -1.03125 L 7.375 -1.03125 L 7.375 0 L 1.421875 0 Z M 1.421875 -1.03125 "/></g></g></g><g fill="#3b3937" fill-opacity="1"><g transform="translate(191.894012, 165.15722)"><g><path d="M 6.671875 -1.09375 L 6.5 -1.09375 C 6.269531 -0.664062 5.953125 -0.34375 5.546875 -0.125 C 5.148438 0.09375 4.71875 0.203125 4.25 0.203125 C 3.769531 0.203125 3.316406 0.125 2.890625 -0.03125 C 2.472656 -0.195312 2.101562 -0.429688 1.78125 -0.734375 C 1.46875 -1.046875 1.21875 -1.429688 1.03125 -1.890625 C 0.84375 -2.347656 0.75 -2.867188 0.75 -3.453125 L 0.75 -3.6875 C 0.75 -4.257812 0.84375 -4.769531 1.03125 -5.21875 C 1.226562 -5.675781 1.484375 -6.0625 1.796875 -6.375 C 2.109375 -6.6875 2.472656 -6.921875 2.890625 -7.078125 C 3.316406 -7.242188 3.757812 -7.328125 4.21875 -7.328125 C 4.738281 -7.328125 5.191406 -7.210938 5.578125 -6.984375 C 5.972656 -6.765625 6.28125 -6.441406 6.5 -6.015625 L 6.671875 -6.015625 L 6.671875 -7.125 L 7.796875 -7.125 L 7.796875 1.75 C 7.796875 2.082031 7.691406 2.351562 7.484375 2.5625 C 7.273438 2.769531 7.007812 2.875 6.6875 2.875 L 2.046875 2.875 L 2.046875 1.84375 L 6.28125 1.84375 C 6.539062 1.84375 6.671875 1.695312 6.671875 1.40625 Z M 4.28125 -0.859375 C 4.613281 -0.859375 4.925781 -0.921875 5.21875 -1.046875 C 5.507812 -1.171875 5.757812 -1.347656 5.96875 -1.578125 C 6.1875 -1.804688 6.359375 -2.082031 6.484375 -2.40625 C 6.609375 -2.726562 6.671875 -3.085938 6.671875 -3.484375 L 6.671875 -3.65625 C 6.671875 -4.03125 6.609375 -4.378906 6.484375 -4.703125 C 6.359375 -5.023438 6.1875 -5.300781 5.96875 -5.53125 C 5.757812 -5.757812 5.503906 -5.9375 5.203125 -6.0625 C 4.910156 -6.195312 4.601562 -6.265625 4.28125 -6.265625 C 3.945312 -6.265625 3.632812 -6.203125 3.34375 -6.078125 C 3.050781 -5.953125 2.796875 -5.773438 2.578125 -5.546875 C 2.359375 -5.316406 2.1875 -5.039062 2.0625 -4.71875 C 1.945312 -4.40625 1.890625 -4.0625 1.890625 -3.6875 L 1.890625 -3.453125 C 1.890625 -3.046875 1.945312 -2.679688 2.0625 -2.359375 C 2.1875 -2.046875 2.359375 -1.773438 2.578125 -1.546875 C 2.796875 -1.328125 3.046875 -1.15625 3.328125 -1.03125 C 3.617188 -0.914062 3.9375 -0.859375 4.28125 -0.859375 Z M 4.28125 -0.859375 "/></g></g></g><g fill="#3b3937" fill-opacity="1"><g transform="translate(200.696134, 165.15722)"><g><path d="M 2.375 0 L 1.25 0 L 1.25 -7.125 L 2.375 -7.125 L 2.375 -5.921875 L 2.546875 -5.921875 C 2.984375 -6.859375 3.75 -7.328125 4.84375 -7.328125 C 5.664062 -7.328125 6.320312 -7.070312 6.8125 -6.5625 C 7.300781 -6.050781 7.546875 -5.28125 7.546875 -4.25 L 7.546875 0 L 6.421875 0 L 6.421875 -4.03125 C 6.421875 -4.769531 6.253906 -5.328125 5.921875 -5.703125 C 5.585938 -6.078125 5.132812 -6.265625 4.5625 -6.265625 C 3.875 -6.265625 3.335938 -6.03125 2.953125 -5.5625 C 2.566406 -5.101562 2.375 -4.484375 2.375 -3.703125 Z M 2.375 0 "/></g></g></g><g fill="#3b3937" fill-opacity="1"><g transform="translate(209.498255, 165.15722)"><g><path d="M 2.0625 -3.21875 C 2.09375 -2.507812 2.3125 -1.9375 2.71875 -1.5 C 3.132812 -1.070312 3.710938 -0.859375 4.453125 -0.859375 C 4.785156 -0.859375 5.078125 -0.894531 5.328125 -0.96875 C 5.578125 -1.050781 5.789062 -1.160156 5.96875 -1.296875 C 6.144531 -1.429688 6.285156 -1.585938 6.390625 -1.765625 C 6.503906 -1.941406 6.597656 -2.128906 6.671875 -2.328125 L 7.734375 -2.046875 C 7.535156 -1.378906 7.164062 -0.835938 6.625 -0.421875 C 6.082031 -0.00390625 5.347656 0.203125 4.421875 0.203125 C 3.921875 0.203125 3.457031 0.113281 3.03125 -0.0625 C 2.601562 -0.238281 2.234375 -0.488281 1.921875 -0.8125 C 1.617188 -1.144531 1.378906 -1.535156 1.203125 -1.984375 C 1.035156 -2.429688 0.953125 -2.929688 0.953125 -3.484375 L 0.953125 -3.828125 C 0.953125 -4.328125 1.039062 -4.789062 1.21875 -5.21875 C 1.394531 -5.644531 1.640625 -6.015625 1.953125 -6.328125 C 2.265625 -6.640625 2.632812 -6.882812 3.0625 -7.0625 C 3.488281 -7.238281 3.953125 -7.328125 4.453125 -7.328125 C 5.035156 -7.328125 5.539062 -7.21875 5.96875 -7 C 6.394531 -6.789062 6.742188 -6.523438 7.015625 -6.203125 C 7.296875 -5.890625 7.5 -5.546875 7.625 -5.171875 C 7.75 -4.796875 7.8125 -4.453125 7.8125 -4.140625 L 7.8125 -3.21875 Z M 4.453125 -6.265625 C 4.140625 -6.265625 3.84375 -6.210938 3.5625 -6.109375 C 3.289062 -6.015625 3.050781 -5.875 2.84375 -5.6875 C 2.644531 -5.507812 2.476562 -5.296875 2.34375 -5.046875 C 2.21875 -4.804688 2.132812 -4.539062 2.09375 -4.25 L 6.703125 -4.25 C 6.679688 -4.5625 6.601562 -4.84375 6.46875 -5.09375 C 6.34375 -5.34375 6.175781 -5.550781 5.96875 -5.71875 C 5.757812 -5.894531 5.523438 -6.03125 5.265625 -6.125 C 5.003906 -6.21875 4.734375 -6.265625 4.453125 -6.265625 Z M 4.453125 -6.265625 "/></g></g></g><g fill="#3b3937" fill-opacity="1"><g transform="translate(218.300377, 165.15722)"><g><path d="M 0.84375 -7.125 L 3.4375 -7.125 L 3.4375 -6.1875 L 3.609375 -6.1875 C 3.785156 -6.570312 4.039062 -6.859375 4.375 -7.046875 C 4.71875 -7.234375 5.101562 -7.328125 5.53125 -7.328125 C 6.25 -7.328125 6.828125 -7.09375 7.265625 -6.625 C 7.710938 -6.15625 7.953125 -5.472656 7.984375 -4.578125 L 6.796875 -4.40625 C 6.796875 -5.0625 6.632812 -5.535156 6.3125 -5.828125 C 6 -6.117188 5.613281 -6.265625 5.15625 -6.265625 C 4.863281 -6.265625 4.609375 -6.207031 4.390625 -6.09375 C 4.171875 -5.976562 3.988281 -5.816406 3.84375 -5.609375 C 3.707031 -5.410156 3.601562 -5.175781 3.53125 -4.90625 C 3.46875 -4.644531 3.4375 -4.359375 3.4375 -4.046875 L 3.4375 -1.03125 L 5.25 -1.03125 L 5.25 0 L 0.671875 0 L 0.671875 -1.03125 L 2.3125 -1.03125 L 2.3125 -6.09375 L 0.84375 -6.09375 Z M 0.84375 -7.125 "/></g></g></g><g fill="#3b3937" fill-opacity="1"><g transform="translate(227.102498, 165.15722)"><g><path d="M 3.390625 -0.8125 C 3.390625 -1.082031 3.488281 -1.316406 3.6875 -1.515625 C 3.882812 -1.710938 4.125 -1.8125 4.40625 -1.8125 C 4.675781 -1.8125 4.910156 -1.710938 5.109375 -1.515625 C 5.304688 -1.316406 5.40625 -1.082031 5.40625 -0.8125 C 5.40625 -0.53125 5.304688 -0.289062 5.109375 -0.09375 C 4.910156 0.101562 4.675781 0.203125 4.40625 0.203125 C 4.125 0.203125 3.882812 0.101562 3.6875 -0.09375 C 3.488281 -0.289062 3.390625 -0.53125 3.390625 -0.8125 Z M 3.390625 -0.8125 "/></g></g></g><g fill="#3b3937" fill-opacity="1"><g transform="translate(235.90462, 165.15722)"><g/></g></g><g fill="#3b3937" fill-opacity="1"><g transform="translate(244.706741, 165.15722)"><g><path d="M 1.046875 -10.0625 L 4.359375 -10.0625 C 5.597656 -10.0625 6.503906 -9.765625 7.078125 -9.171875 C 7.660156 -8.578125 7.953125 -7.628906 7.953125 -6.328125 L 7.953125 -3.734375 C 7.953125 -2.429688 7.660156 -1.484375 7.078125 -0.890625 C 6.503906 -0.296875 5.597656 0 4.359375 0 L 1.046875 0 L 1.046875 -1.140625 L 1.90625 -1.140625 L 1.90625 -8.9375 L 1.046875 -8.9375 Z M 4.1875 -1.125 C 4.625 -1.125 5.003906 -1.164062 5.328125 -1.25 C 5.648438 -1.332031 5.914062 -1.476562 6.125 -1.6875 C 6.332031 -1.894531 6.484375 -2.171875 6.578125 -2.515625 C 6.679688 -2.859375 6.734375 -3.296875 6.734375 -3.828125 L 6.734375 -6.234375 C 6.734375 -6.765625 6.679688 -7.203125 6.578125 -7.546875 C 6.484375 -7.890625 6.332031 -8.164062 6.125 -8.375 C 5.914062 -8.582031 5.648438 -8.726562 5.328125 -8.8125 C 5.003906 -8.894531 4.625 -8.9375 4.1875 -8.9375 L 3.125 -8.9375 L 3.125 -1.125 Z M 4.1875 -1.125 "/></g></g></g><g fill="#3b3937" fill-opacity="1"><g transform="translate(253.508863, 165.15722)"><g><path d="M 0.84375 -7.125 L 3.4375 -7.125 L 3.4375 -6.1875 L 3.609375 -6.1875 C 3.785156 -6.570312 4.039062 -6.859375 4.375 -7.046875 C 4.71875 -7.234375 5.101562 -7.328125 5.53125 -7.328125 C 6.25 -7.328125 6.828125 -7.09375 7.265625 -6.625 C 7.710938 -6.15625 7.953125 -5.472656 7.984375 -4.578125 L 6.796875 -4.40625 C 6.796875 -5.0625 6.632812 -5.535156 6.3125 -5.828125 C 6 -6.117188 5.613281 -6.265625 5.15625 -6.265625 C 4.863281 -6.265625 4.609375 -6.207031 4.390625 -6.09375 C 4.171875 -5.976562 3.988281 -5.816406 3.84375 -5.609375 C 3.707031 -5.410156 3.601562 -5.175781 3.53125 -4.90625 C 3.46875 -4.644531 3.4375 -4.359375 3.4375 -4.046875 L 3.4375 -1.03125 L 5.25 -1.03125 L 5.25 0 L 0.671875 0 L 0.671875 -1.03125 L 2.3125 -1.03125 L 2.3125 -6.09375 L 0.84375 -6.09375 Z M 0.84375 -7.125 "/></g></g></g><g fill="#3b3937" fill-opacity="1"><g transform="translate(262.310984, 165.15722)"><g><path d="M 2.0625 -3.21875 C 2.09375 -2.507812 2.3125 -1.9375 2.71875 -1.5 C 3.132812 -1.070312 3.710938 -0.859375 4.453125 -0.859375 C 4.785156 -0.859375 5.078125 -0.894531 5.328125 -0.96875 C 5.578125 -1.050781 5.789062 -1.160156 5.96875 -1.296875 C 6.144531 -1.429688 6.285156 -1.585938 6.390625 -1.765625 C 6.503906 -1.941406 6.597656 -2.128906 6.671875 -2.328125 L 7.734375 -2.046875 C 7.535156 -1.378906 7.164062 -0.835938 6.625 -0.421875 C 6.082031 -0.00390625 5.347656 0.203125 4.421875 0.203125 C 3.921875 0.203125 3.457031 0.113281 3.03125 -0.0625 C 2.601562 -0.238281 2.234375 -0.488281 1.921875 -0.8125 C 1.617188 -1.144531 1.378906 -1.535156 1.203125 -1.984375 C 1.035156 -2.429688 0.953125 -2.929688 0.953125 -3.484375 L 0.953125 -3.828125 C 0.953125 -4.328125 1.039062 -4.789062 1.21875 -5.21875 C 1.394531 -5.644531 1.640625 -6.015625 1.953125 -6.328125 C 2.265625 -6.640625 2.632812 -6.882812 3.0625 -7.0625 C 3.488281 -7.238281 3.953125 -7.328125 4.453125 -7.328125 C 5.035156 -7.328125 5.539062 -7.21875 5.96875 -7 C 6.394531 -6.789062 6.742188 -6.523438 7.015625 -6.203125 C 7.296875 -5.890625 7.5 -5.546875 7.625 -5.171875 C 7.75 -4.796875 7.8125 -4.453125 7.8125 -4.140625 L 7.8125 -3.21875 Z M 4.453125 -6.265625 C 4.140625 -6.265625 3.84375 -6.210938 3.5625 -6.109375 C 3.289062 -6.015625 3.050781 -5.875 2.84375 -5.6875 C 2.644531 -5.507812 2.476562 -5.296875 2.34375 -5.046875 C 2.21875 -4.804688 2.132812 -4.539062 2.09375 -4.25 L 6.703125 -4.25 C 6.679688 -4.5625 6.601562 -4.84375 6.46875 -5.09375 C 6.34375 -5.34375 6.175781 -5.550781 5.96875 -5.71875 C 5.757812 -5.894531 5.523438 -6.03125 5.265625 -6.125 C 5.003906 -6.21875 4.734375 -6.265625 4.453125 -6.265625 Z M 4.453125 -6.265625 "/></g></g></g><g fill="#3b3937" fill-opacity="1"><g transform="translate(271.113106, 165.15722)"><g><path d="M 6.421875 -1.203125 L 6.25 -1.203125 C 6.019531 -0.722656 5.703125 -0.367188 5.296875 -0.140625 C 4.890625 0.0859375 4.460938 0.203125 4.015625 0.203125 C 3.546875 0.203125 3.109375 0.125 2.703125 -0.03125 C 2.296875 -0.1875 1.941406 -0.421875 1.640625 -0.734375 C 1.335938 -1.046875 1.097656 -1.425781 0.921875 -1.875 C 0.753906 -2.332031 0.671875 -2.859375 0.671875 -3.453125 L 0.671875 -3.6875 C 0.671875 -4.269531 0.753906 -4.785156 0.921875 -5.234375 C 1.097656 -5.679688 1.335938 -6.0625 1.640625 -6.375 C 1.941406 -6.6875 2.296875 -6.921875 2.703125 -7.078125 C 3.109375 -7.242188 3.535156 -7.328125 3.984375 -7.328125 C 4.472656 -7.328125 4.914062 -7.21875 5.3125 -7 C 5.707031 -6.789062 6.019531 -6.460938 6.25 -6.015625 L 6.421875 -6.015625 L 6.421875 -7.125 L 7.546875 -7.125 L 7.546875 -1.46875 C 7.546875 -1.175781 7.675781 -1.03125 7.9375 -1.03125 L 8.296875 -1.03125 L 8.296875 0 L 7.53125 0 C 7.207031 0 6.941406 -0.101562 6.734375 -0.3125 C 6.523438 -0.519531 6.421875 -0.789062 6.421875 -1.125 Z M 4.125 -0.859375 C 4.457031 -0.859375 4.765625 -0.921875 5.046875 -1.046875 C 5.335938 -1.171875 5.582031 -1.347656 5.78125 -1.578125 C 5.976562 -1.804688 6.132812 -2.082031 6.25 -2.40625 C 6.363281 -2.726562 6.421875 -3.085938 6.421875 -3.484375 L 6.421875 -3.65625 C 6.421875 -4.03125 6.363281 -4.378906 6.25 -4.703125 C 6.132812 -5.023438 5.972656 -5.300781 5.765625 -5.53125 C 5.566406 -5.757812 5.320312 -5.9375 5.03125 -6.0625 C 4.75 -6.195312 4.445312 -6.265625 4.125 -6.265625 C 3.789062 -6.265625 3.484375 -6.203125 3.203125 -6.078125 C 2.921875 -5.953125 2.675781 -5.773438 2.46875 -5.546875 C 2.269531 -5.328125 2.113281 -5.054688 2 -4.734375 C 1.882812 -4.410156 1.828125 -4.0625 1.828125 -3.6875 L 1.828125 -3.453125 C 1.828125 -2.640625 2.039062 -2.003906 2.46875 -1.546875 C 2.894531 -1.085938 3.445312 -0.859375 4.125 -0.859375 Z M 4.125 -0.859375 "/></g></g></g><g fill="#3b3937" fill-opacity="1"><g transform="translate(279.915228, 165.15722)"><g><path d="M 8.109375 0 L 6.984375 0 L 6.984375 -5.125 C 6.984375 -5.457031 6.90625 -5.726562 6.75 -5.9375 C 6.601562 -6.15625 6.359375 -6.265625 6.015625 -6.265625 C 5.703125 -6.265625 5.445312 -6.144531 5.25 -5.90625 C 5.050781 -5.675781 4.953125 -5.316406 4.953125 -4.828125 L 4.953125 0 L 3.84375 0 L 3.84375 -5.171875 C 3.84375 -5.492188 3.753906 -5.753906 3.578125 -5.953125 C 3.410156 -6.160156 3.179688 -6.265625 2.890625 -6.265625 C 2.546875 -6.265625 2.28125 -6.140625 2.09375 -5.890625 C 1.90625 -5.640625 1.8125 -5.316406 1.8125 -4.921875 L 1.8125 0 L 0.6875 0 L 0.6875 -7.125 L 1.8125 -7.125 L 1.8125 -6.359375 L 1.984375 -6.359375 C 2.109375 -6.691406 2.289062 -6.9375 2.53125 -7.09375 C 2.769531 -7.25 3.050781 -7.328125 3.375 -7.328125 C 3.71875 -7.328125 4.003906 -7.234375 4.234375 -7.046875 C 4.460938 -6.867188 4.617188 -6.640625 4.703125 -6.359375 L 4.875 -6.359375 C 5.195312 -7.003906 5.710938 -7.328125 6.421875 -7.328125 C 6.960938 -7.328125 7.378906 -7.15625 7.671875 -6.8125 C 7.960938 -6.476562 8.109375 -6.035156 8.109375 -5.484375 Z M 8.109375 0 "/></g></g></g><g fill="#3b3937" fill-opacity="1"><g transform="translate(288.717349, 165.15722)"><g><path d="M 2.0625 -3.21875 C 2.09375 -2.507812 2.3125 -1.9375 2.71875 -1.5 C 3.132812 -1.070312 3.710938 -0.859375 4.453125 -0.859375 C 4.785156 -0.859375 5.078125 -0.894531 5.328125 -0.96875 C 5.578125 -1.050781 5.789062 -1.160156 5.96875 -1.296875 C 6.144531 -1.429688 6.285156 -1.585938 6.390625 -1.765625 C 6.503906 -1.941406 6.597656 -2.128906 6.671875 -2.328125 L 7.734375 -2.046875 C 7.535156 -1.378906 7.164062 -0.835938 6.625 -0.421875 C 6.082031 -0.00390625 5.347656 0.203125 4.421875 0.203125 C 3.921875 0.203125 3.457031 0.113281 3.03125 -0.0625 C 2.601562 -0.238281 2.234375 -0.488281 1.921875 -0.8125 C 1.617188 -1.144531 1.378906 -1.535156 1.203125 -1.984375 C 1.035156 -2.429688 0.953125 -2.929688 0.953125 -3.484375 L 0.953125 -3.828125 C 0.953125 -4.328125 1.039062 -4.789062 1.21875 -5.21875 C 1.394531 -5.644531 1.640625 -6.015625 1.953125 -6.328125 C 2.265625 -6.640625 2.632812 -6.882812 3.0625 -7.0625 C 3.488281 -7.238281 3.953125 -7.328125 4.453125 -7.328125 C 5.035156 -7.328125 5.539062 -7.21875 5.96875 -7 C 6.394531 -6.789062 6.742188 -6.523438 7.015625 -6.203125 C 7.296875 -5.890625 7.5 -5.546875 7.625 -5.171875 C 7.75 -4.796875 7.8125 -4.453125 7.8125 -4.140625 L 7.8125 -3.21875 Z M 4.453125 -6.265625 C 4.140625 -6.265625 3.84375 -6.210938 3.5625 -6.109375 C 3.289062 -6.015625 3.050781 -5.875 2.84375 -5.6875 C 2.644531 -5.507812 2.476562 -5.296875 2.34375 -5.046875 C 2.21875 -4.804688 2.132812 -4.539062 2.09375 -4.25 L 6.703125 -4.25 C 6.679688 -4.5625 6.601562 -4.84375 6.46875 -5.09375 C 6.34375 -5.34375 6.175781 -5.550781 5.96875 -5.71875 C 5.757812 -5.894531 5.523438 -6.03125 5.265625 -6.125 C 5.003906 -6.21875 4.734375 -6.265625 4.453125 -6.265625 Z M 4.453125 -6.265625 "/></g></g></g><g fill="#3b3937" fill-opacity="1"><g transform="translate(297.519471, 165.15722)"><g><path d="M 0.84375 -7.125 L 3.4375 -7.125 L 3.4375 -6.1875 L 3.609375 -6.1875 C 3.785156 -6.570312 4.039062 -6.859375 4.375 -7.046875 C 4.71875 -7.234375 5.101562 -7.328125 5.53125 -7.328125 C 6.25 -7.328125 6.828125 -7.09375 7.265625 -6.625 C 7.710938 -6.15625 7.953125 -5.472656 7.984375 -4.578125 L 6.796875 -4.40625 C 6.796875 -5.0625 6.632812 -5.535156 6.3125 -5.828125 C 6 -6.117188 5.613281 -6.265625 5.15625 -6.265625 C 4.863281 -6.265625 4.609375 -6.207031 4.390625 -6.09375 C 4.171875 -5.976562 3.988281 -5.816406 3.84375 -5.609375 C 3.707031 -5.410156 3.601562 -5.175781 3.53125 -4.90625 C 3.46875 -4.644531 3.4375 -4.359375 3.4375 -4.046875 L 3.4375 -1.03125 L 5.25 -1.03125 L 5.25 0 L 0.671875 0 L 0.671875 -1.03125 L 2.3125 -1.03125 L 2.3125 -6.09375 L 0.84375 -6.09375 Z M 0.84375 -7.125 "/></g></g></g><g fill="#3b3937" fill-opacity="1"><g transform="translate(306.321592, 165.15722)"><g><path d="M 3.390625 -0.8125 C 3.390625 -1.082031 3.488281 -1.316406 3.6875 -1.515625 C 3.882812 -1.710938 4.125 -1.8125 4.40625 -1.8125 C 4.675781 -1.8125 4.910156 -1.710938 5.109375 -1.515625 C 5.304688 -1.316406 5.40625 -1.082031 5.40625 -0.8125 C 5.40625 -0.53125 5.304688 -0.289062 5.109375 -0.09375 C 4.910156 0.101562 4.675781 0.203125 4.40625 0.203125 C 4.125 0.203125 3.882812 0.101562 3.6875 -0.09375 C 3.488281 -0.289062 3.390625 -0.53125 3.390625 -0.8125 Z M 3.390625 -0.8125 "/></g></g></g></svg>